<svg xmlns="http://www.w3.org/2000/svg" height="48" viewBox="0 96 960 960" width="48"><path d="M189.199 633Q166 633 149 616.62q-17-16.379-17-40.093Q132 552 148.809 535.5q16.808-16.5 40.412-16.5 23.079 0 40.929 16.33Q248 551.659 248 575.473 248 600 230.199 616.5t-41 16.5Zm291.328 0Q456 633 439.5 616.62 423 600.241 423 576.527 423 552 439.38 535.5q16.379-16.5 40.093-16.5Q504 519 520.5 535.33q16.5 16.329 16.5 40.143Q537 600 520.67 616.5 504.341 633 480.527 633Zm290.287 0q-24.443 0-41.629-16.38Q712 600.241 712 576.527 712 552 729.261 535.5t41.5-16.5Q795 519 812 535.33q17 16.329 17 40.143Q829 600 811.922 616.5 794.845 633 770.814 633Z"/></svg>